<svg width="32" height="32" viewBox="0 0 32 32" xmlns="http://www.w3.org/2000/svg">
  <!-- Background with rounded corners -->
  <rect width="32" height="32" rx="6" fill="#10B981"/>
  
  <!-- Mint leaf design -->
  <g>
    <!-- Main mint leaf -->
    <path d="M16 6C20 6 24 9 24 14C24 19 20 24 16 26C12 24 8 19 8 14C8 9 12 6 16 6Z" fill="#FFFFFF"/>
    
    <!-- Leaf vein -->
    <path d="M16 8L16 24" stroke="#10B981" stroke-width="1.5" stroke-linecap="round"/>
    
    <!-- Leaf details -->
    <path d="M12 12C13 11 15 11 16 12" stroke="#10B981" stroke-width="1" stroke-linecap="round"/>
    <path d="M20 12C19 11 17 11 16 12" stroke="#10B981" stroke-width="1" stroke-linecap="round"/>
    <path d="M12 16C13 15 15 15 16 16" stroke="#10B981" stroke-width="1" stroke-linecap="round"/>
    <path d="M20 16C19 15 17 15 16 16" stroke="#10B981" stroke-width="1" stroke-linecap="round"/>
    <path d="M13 20C14 19 15 19 16 20" stroke="#10B981" stroke-width="1" stroke-linecap="round"/>
    <path d="M19 20C18 19 17 19 16 20" stroke="#10B981" stroke-width="1" stroke-linecap="round"/>
  </g>
</svg>