<?xml version="1.0" encoding="UTF-8" standalone="no"?>
<!-- Created with Inkscape (http://www.inkscape.org/) -->

<svg
   version="1.1"
   id="svg1"
   width="1024.0001"
   height="1024.0001"
   viewBox="0 0 1024.0001 1024.0001"
   xmlns="http://www.w3.org/2000/svg"
   xmlns:svg="http://www.w3.org/2000/svg">
  <defs
     id="defs1" />
  <g
     id="g1"
     style="fill:#abc837;fill-opacity:0"
     transform="translate(-3.076917e-8,-1.2307688)">
    <path
       style="fill:#abc837;fill-opacity:0"
       d="M 3.076917e-8,513.23077 V 1.2307688 H 511.99999 1024.0001 V 513.23077 1025.2308 H 511.99999 3.076917e-8 Z M 866.07377,956.6485 c 54.91613,-9.21813 97.57565,-50.68001 109.62055,-106.54298 2.8557,-13.24454 2.8048,-683.82713 -0.053,-696.83426 C 963.71482,98.986771 923.25739,60.058188 867.85141,49.554732 853.16968,46.771478 171.61402,46.757005 156.99989,49.539632 101.58639,60.090748 59.819153,100.04031 48.268513,153.5391 c -2.411064,11.16729 -2.785159,683.04102 -0.38707,695.19167 11.34267,57.4712 60.025257,102.69836 117.118447,108.80554 13.42932,1.43651 692.34875,0.57676 701.07378,-0.88781 z M 337.33265,813.53587 c -7.55173,-1.47226 -8.8916,-7.82907 -4.76552,-22.60926 8.38861,-30.04921 40.51493,-117.95681 50.09071,-137.06378 13.21858,-26.3756 73.88829,-112.41926 77.04291,-109.26463 0.17389,0.17389 -1.96287,4.27677 -4.74836,9.11752 -24.07796,41.84369 -48.72065,95.5026 -63.94264,139.23364 l -6.68965,19.2186 3.58995,-2.97634 c 25.83585,-21.41985 37.64635,-26.58537 63.97285,-27.97955 9.1394,-0.484 17.96709,-1.12704 19.61709,-1.42897 1.65,-0.30194 11.325,-1.92033 21.5,-3.59644 84.54121,-13.92627 115.74792,-28.18955 91.73434,-41.92793 -17.38941,-9.94864 -81.10551,-1.9354 -138.61987,17.43349 -11.75337,3.95814 -11.39269,4.39939 -6.01198,-7.35491 35.169,-76.8277 151.65887,-96.30773 248.89751,-41.62193 54.33121,30.5552 56.89987,34.56783 35.75,55.84684 -86.04962,86.57501 -167.74514,100.06834 -275.84533,45.56031 -15.02557,-7.57643 -37.96596,2.80817 -63.62569,28.80195 l -9.22102,9.34107 -3.48494,11.23261 c -1.91671,6.17793 -5.56449,18.65761 -8.10618,27.73261 -8.51106,30.38843 -12.51486,35.15523 -27.13418,32.3051 z M 324.15204,636.18196 C 236.49745,590.10113 200.09183,518.35764 215.58434,422.23077 c 5.71873,-35.48318 14.7894,-64.51199 19.81649,-63.41856 98.15144,21.34866 165.17303,144.50697 141.44523,259.91856 -2.67288,13.00083 -2.59679,12.95156 -5.81251,3.7636 -25.21689,-72.0497 -60.86579,-137.2636 -75.03457,-137.2636 -19.25856,0 -13.32808,27.37529 24.65519,113.80914 10.36376,23.58355 18.34582,42.69179 18.34582,43.91805 0,0.83765 -2.76932,-0.42615 -14.84795,-6.776 z M 482.48957,510.63911 c 12.30727,-22.14825 27.79562,-45.96118 58.47797,-89.90834 68.55774,-98.1971 67.26781,-95.97662 61.83906,-106.45003 -6.62699,-12.78512 -18.36937,-7.47532 -47.40244,21.43496 -35.54525,35.39492 -58.6472,64.36025 -94.2632,118.18767 -22.71681,34.33252 -21.62193,34.50971 -22.86641,-3.70059 -5.20353,-159.76693 107.33443,-262.5186 281.72544,-257.22663 19.30376,0.58578 17.29195,-3.927 17.13639,38.43949 -0.32746,89.18224 -11.84495,133.40737 -47.26654,181.4952 -39.9364,54.21708 -124.21875,97.38106 -202.97126,103.94876 l -8.24782,0.68785 z"
       id="path3" />
  </g>
  <path
     style="fill:none;stroke-width:0"
     d="M 157.33432,954.5512 C 114.91217,946.53673 78.724784,918.74193 59.69889,879.55941 56.365269,872.69404 52.369265,862.64615 50.81888,857.23077 L 48,847.38461 V 500.92308 154.46154 l 2.843749,-9.82382 C 63.786895,99.925241 97.685947,66.281894 144.00677,52.17744 l 11.07015,-3.370806 62.76923,-0.887887 c 81.88165,-1.158238 507.30119,-1.153484 588.92308,0.0066 l 63.38462,0.900864 11.07692,3.336754 c 45.29055,13.643083 78.93775,47.483156 91.92553,92.452435 L 976,154.46154 v 347.07692 347.07692 l -4.54421,13.12016 c -2.49932,7.2161 -6.46405,16.90841 -8.81051,21.53847 -17.11846,33.77838 -48.59737,59.18987 -85.4689,68.99516 l -11.94561,3.17671 -349.53846,0.38575 c -289.97742,0.32002 -351.0413,0.10185 -358.35799,-1.28043 z M 351.13344,811.60663 c 4.57996,-3.20792 8.38084,-12.47783 16.85652,-41.11118 4.5396,-15.33608 9.28215,-28.94456 10.81635,-31.03687 3.76507,-5.13469 23.01891,-22.0807 31.43453,-27.66668 10.15377,-6.73968 19.38811,-10.19014 27.36273,-10.22422 5.53538,-0.0237 8.81029,0.93297 17.23077,5.03334 25.44273,12.38935 54.12591,22.1017 78.08874,26.44144 16.96194,3.07187 49.90062,3.09927 65.18611,0.0543 41.81725,-8.33041 77.35289,-28.41719 118.97101,-67.24924 22.60848,-21.09499 25.33779,-28.5826 14.03458,-38.50252 -8.53055,-7.48658 -42.79125,-28.01726 -59.2954,-35.53269 -34.17123,-15.56045 -71.12758,-23.05045 -106.28092,-21.54014 -52.65852,2.26239 -94.48098,22.73679 -117.65805,57.60009 -5.65173,8.5014 -11.57272,20.70652 -11.57272,23.85519 0,2.5492 0.92782,2.39222 17.8659,-3.02279 30.47539,-9.7428 61.14261,-16.0807 89.71547,-18.54123 22.2224,-1.91365 35.79743,-0.11923 43.56607,5.7588 9.30103,7.03747 1.68656,14.54037 -22.74445,22.41115 -26.26414,8.46135 -80.29819,18.67063 -111.19735,21.00982 -9.15228,0.69286 -19.82313,2.08871 -23.71299,3.10188 -11.40784,2.97138 -23.95476,9.98436 -36.74038,20.5357 -3.1401,2.59137 -5.9756,4.71158 -6.30113,4.71158 -0.32553,0 2.03115,-7.33846 5.23706,-16.3077 16.84085,-47.11592 34.50081,-85.47101 65.12909,-141.4517 3.9198,-7.16438 2.35509,-9.23839 -2.61891,-3.47137 -18.29462,21.21133 -63.43899,87.82741 -72.98089,107.69231 -7.27116,15.13752 -19.40913,46.49436 -33.77456,87.25207 -19.45493,55.19765 -21.57233,66.02754 -13.74139,70.28325 4.33993,2.35852 13.70355,2.31339 17.12421,-0.0825 z M 339.07692,640.75754 c 0,-0.93721 -8.2479,-21.01413 -18.32866,-44.61539 -32.36457,-75.7725 -39.21563,-98.85834 -32.04355,-107.97617 3.7421,-4.75729 8.55935,-4.31307 14.8836,1.37248 15.0183,13.50158 42.69686,66.81299 62.63818,120.64677 3.57955,9.66341 7.1045,17.37282 7.8332,17.13202 1.70905,-0.56476 5.10938,-16.59625 6.78328,-31.98091 9.24009,-84.92534 -30.04882,-175.36888 -94.07374,-216.55886 -12.893,-8.29463 -24.40564,-13.73147 -38.60578,-18.2316 -9.37064,-2.96962 -13.29339,-3.71191 -14.76923,-2.79471 -4.30837,2.67753 -11.5214,26.00336 -16.80167,54.33404 -17.07873,91.63401 10.19768,160.77529 82.3713,208.79798 9.76181,6.49527 37.01541,21.48123 39.19,21.5494 0.50769,0.0159 0.92307,-0.73786 0.92307,-1.67505 z M 510.15385,513.09287 c 71.69694,-12.00199 142.84083,-51.65112 179.18003,-99.85868 35.94662,-47.68677 47.38918,-90.59407 47.74315,-179.02732 0.14164,-35.38589 -0.0197,-38.58221 -2.0495,-40.61539 -1.98779,-1.99107 -4.816,-2.20019 -28.92307,-2.13859 -42.07875,0.10749 -73.40549,4.81398 -107.11799,16.09325 -52.65259,17.6161 -95.95441,50.12812 -123.54645,92.76155 -19.48685,30.10984 -32.89259,70.427 -36.62689,110.15385 -2.13681,22.73211 -1.13965,65.16065 1.59568,67.896 2.01395,2.01393 5.77873,-2.57733 23.7284,-28.93743 36.73886,-53.95311 55.09785,-76.91946 87.84617,-109.892 22.71308,-22.86859 34.32458,-31.8358 41.22366,-31.8358 4.35574,0 8.28729,3.41859 10.42757,9.06709 2.51567,6.63916 -1.70001,13.68021 -48.73332,81.39445 -16.92651,24.36923 -36.42,52.75335 -43.31888,63.07582 -13.15522,19.68356 -33.42856,52.93922 -33.42856,54.83501 0,1.38893 13.36406,0.14782 32,-2.97181 z"
     id="path1" />
  <path
     style="fill:#747474;fill-opacity:0;stroke-width:0"
     d="M 162.46154,955.50363 C 109.77023,947.41222 65.474234,908.4209 50.81888,857.23077 L 48,847.38461 V 500.92308 154.46154 l 2.843749,-9.82382 C 58.28944,118.91636 73.362548,95.586334 92.923077,79.507691 107.69783,67.362928 120.2893,60.160747 136.61538,54.51617 c 20.36986,-7.042669 2.36145,-6.609598 302.76924,-7.281082 152.30769,-0.340445 311.53846,-0.11145 353.84615,0.508876 l 76.92308,1.127867 10.95432,3.304641 c 28.73526,8.668699 52.87066,25.061451 69.95857,47.515839 7.60191,9.989309 18.40986,31.939099 22.11986,44.923069 L 976,154.46154 v 347.07692 347.07692 l -4.14914,12.3077 c -15.74953,46.71808 -48.30873,78.37057 -93.82841,91.21548 l -11.56091,3.26229 -350.15385,0.33489 c -192.58461,0.18419 -351.81538,0.0797 -353.84615,-0.23211 z m 189.59364,-144.4725 c 3.88668,-3.22567 7.78438,-13.26383 15.9916,-41.18498 9.49583,-32.30497 8.49344,-30.67922 30.0978,-48.81482 14.70239,-12.34179 26.89639,-18.592 37.60261,-19.27372 7.24531,-0.46135 8.67285,-0.0731 21.29264,5.79134 44.9455,20.88616 82.36317,29.8511 117.11402,28.05946 51.57968,-2.65928 98.06427,-25.9363 146.44882,-73.33381 14.13439,-13.84607 17.97195,-19.84841 16.62137,-25.99755 -1.51301,-6.88868 -15.56937,-17.323 -46.7625,-34.71274 -24.57755,-13.70165 -52.75332,-23.83248 -80,-28.76464 -18.9977,-3.43894 -57.18627,-3.14363 -74.46154,0.57582 -39.75813,8.56012 -69.98972,27.22549 -88.01753,54.34318 -5.73881,8.63242 -11.67478,20.8395 -11.67478,24.00873 0,2.55176 0.91974,2.3948 18.04202,-3.07909 49.51285,-15.82896 103.88748,-23.24717 124.72721,-17.01624 6.5205,1.94958 12.3077,6.75925 12.3077,10.22878 0,3.25879 -3.53791,7.14706 -9.19939,10.11039 -17.80288,9.3184 -88.70409,24.41153 -128.6719,27.39111 -26.59687,1.98278 -36.42857,5.55295 -56.05391,20.35474 -5.88432,4.43807 -10.82946,7.9096 -10.9892,7.71453 -0.15975,-0.19509 3.17814,-9.88346 7.41751,-21.52973 14.2433,-39.1287 34.05764,-82.76515 54.50541,-120.03538 11.049,-20.13905 12.36453,-23.09728 10.27143,-23.09728 -2.47317,0 -29.40446,35.97306 -50.67797,67.69231 -23.73646,35.39155 -28.45133,44.82005 -46.15987,92.30769 -16.32694,43.7827 -29.23127,82.3717 -31.46447,94.09113 -1.50637,7.90519 0.26825,13.59449 4.78388,15.33677 4.27616,1.64987 14.3534,0.95498 16.90904,-1.166 z M 338.53391,639.23479 c -0.44542,-1.7747 -7.93261,-19.91317 -16.63818,-40.30769 -30.55077,-71.57119 -38.29335,-95.05521 -35.28766,-107.03085 2.15294,-8.57801 9.37247,-9.31077 17.54189,-1.78047 15.08909,13.90864 42.11696,66.1864 62.07653,120.06945 3.57955,9.66341 7.1045,17.37638 7.8332,17.13993 1.65509,-0.53705 5.01236,-16.93946 6.76532,-33.05295 9.94268,-91.39472 -36.44006,-186.85278 -108.80384,-223.92392 -14.47156,-7.41361 -35.78651,-14.37011 -38.59751,-12.59698 -4.39827,2.77436 -12.78309,30.42758 -17.36547,57.27151 -8.93611,52.34845 -4.12585,95.05448 14.92042,132.46498 17.95163,35.26046 48.96342,64.6601 92.439,87.63361 7.59723,4.01455 14.28858,7.3084 14.86966,7.31966 0.58107,0.0113 0.69207,-1.43157 0.24664,-3.20628 z M 510.15385,513.07594 c 58.54403,-9.73016 118.25107,-38.59296 158.34476,-76.54497 31.89558,-30.19183 54.08523,-72.05372 62.42172,-117.76174 4.6276,-25.37253 6.14325,-46.3926 6.23061,-86.41023 0.0732,-33.51178 -0.10352,-36.74816 -2.11658,-38.76923 -4.25141,-4.26834 -50.39694,-3.42376 -83.80051,1.53376 -121.79982,18.07669 -201.01271,98.35513 -212.38711,215.24408 -2.17703,22.37218 -1.19223,65.23561 1.56207,67.98993 2.02995,2.02993 5.84723,-2.67537 24.82196,-30.59635 23.38394,-34.40904 36.22486,-51.82114 52.89323,-71.72241 23.32466,-27.84857 56.73259,-60.59242 67.34528,-66.00662 8.76718,-4.47268 14.22393,-2.62806 17.84206,6.03135 3.115,7.45522 0.0174,12.54193 -62.51728,102.66376 -15.83674,22.82309 -33.40909,48.75086 -39.04967,57.61727 -10.67122,16.77406 -23.59054,38.66489 -23.59054,39.97243 0,1.07525 15.4372,-0.48826 32,-3.24103 z"
     id="path2" />
  <path
     style="fill:#000000;fill-opacity:0;stroke-width:0"
     d="M 162.46154,955.50363 C 109.77023,947.41222 65.474234,908.4209 50.81888,857.23077 L 48,847.38461 V 500.92308 154.46154 l 2.843749,-9.82382 C 58.28944,118.91636 73.362548,95.586334 92.923077,79.507691 107.69783,67.362928 120.2893,60.160747 136.61538,54.51617 c 20.36986,-7.042669 2.36145,-6.609598 302.76924,-7.281082 152.30769,-0.340445 311.53846,-0.11145 353.84615,0.508876 l 76.92308,1.127867 10.95432,3.304641 c 28.73526,8.668699 52.87066,25.061451 69.95857,47.515839 7.60191,9.989309 18.40986,31.939099 22.11986,44.923069 L 976,154.46154 v 347.07692 347.07692 l -4.14914,12.3077 c -15.74953,46.71808 -48.30873,78.37057 -93.82841,91.21548 l -11.56091,3.26229 -350.15385,0.33489 c -192.58461,0.18419 -351.81538,0.0797 -353.84615,-0.23211 z m 189.59364,-144.4725 c 3.88668,-3.22567 7.78438,-13.26383 15.9916,-41.18498 9.49583,-32.30497 8.49344,-30.67922 30.0978,-48.81482 14.70239,-12.34179 26.89639,-18.592 37.60261,-19.27372 7.24531,-0.46135 8.67285,-0.0731 21.29264,5.79134 44.9455,20.88616 82.36317,29.8511 117.11402,28.05946 51.57968,-2.65928 98.06427,-25.9363 146.44882,-73.33381 14.13439,-13.84607 17.97195,-19.84841 16.62137,-25.99755 -1.51301,-6.88868 -15.56937,-17.323 -46.7625,-34.71274 -24.57755,-13.70165 -52.75332,-23.83248 -80,-28.76464 -18.9977,-3.43894 -57.18627,-3.14363 -74.46154,0.57582 -39.75813,8.56012 -69.98972,27.22549 -88.01753,54.34318 -5.73881,8.63242 -11.67478,20.8395 -11.67478,24.00873 0,2.55176 0.91974,2.3948 18.04202,-3.07909 49.51285,-15.82896 103.88748,-23.24717 124.72721,-17.01624 6.5205,1.94958 12.3077,6.75925 12.3077,10.22878 0,3.25879 -3.53791,7.14706 -9.19939,10.11039 -17.80288,9.3184 -88.70409,24.41153 -128.6719,27.39111 -26.59687,1.98278 -36.42857,5.55295 -56.05391,20.35474 -5.88432,4.43807 -10.82946,7.9096 -10.9892,7.71453 -0.15975,-0.19509 3.17814,-9.88346 7.41751,-21.52973 14.2433,-39.1287 34.05764,-82.76515 54.50541,-120.03538 11.049,-20.13905 12.36453,-23.09728 10.27143,-23.09728 -2.47317,0 -29.40446,35.97306 -50.67797,67.69231 -23.73646,35.39155 -28.45133,44.82005 -46.15987,92.30769 -16.32694,43.7827 -29.23127,82.3717 -31.46447,94.09113 -1.50637,7.90519 0.26825,13.59449 4.78388,15.33677 4.27616,1.64987 14.3534,0.95498 16.90904,-1.166 z M 338.53391,639.23479 c -0.44542,-1.7747 -7.93261,-19.91317 -16.63818,-40.30769 -30.55077,-71.57119 -38.29335,-95.05521 -35.28766,-107.03085 2.15294,-8.57801 9.37247,-9.31077 17.54189,-1.78047 15.08909,13.90864 42.11696,66.1864 62.07653,120.06945 3.57955,9.66341 7.1045,17.37638 7.8332,17.13993 1.65509,-0.53705 5.01236,-16.93946 6.76532,-33.05295 9.94268,-91.39472 -36.44006,-186.85278 -108.80384,-223.92392 -14.47156,-7.41361 -35.78651,-14.37011 -38.59751,-12.59698 -4.39827,2.77436 -12.78309,30.42758 -17.36547,57.27151 -8.93611,52.34845 -4.12585,95.05448 14.92042,132.46498 17.95163,35.26046 48.96342,64.6601 92.439,87.63361 7.59723,4.01455 14.28858,7.3084 14.86966,7.31966 0.58107,0.0113 0.69207,-1.43157 0.24664,-3.20628 z M 510.15385,513.07594 c 58.54403,-9.73016 118.25107,-38.59296 158.34476,-76.54497 31.89558,-30.19183 54.08523,-72.05372 62.42172,-117.76174 4.6276,-25.37253 6.14325,-46.3926 6.23061,-86.41023 0.0732,-33.51178 -0.10352,-36.74816 -2.11658,-38.76923 -4.25141,-4.26834 -50.39694,-3.42376 -83.80051,1.53376 -121.79982,18.07669 -201.01271,98.35513 -212.38711,215.24408 -2.17703,22.37218 -1.19223,65.23561 1.56207,67.98993 2.02995,2.02993 5.84723,-2.67537 24.82196,-30.59635 23.38394,-34.40904 36.22486,-51.82114 52.89323,-71.72241 23.32466,-27.84857 56.73259,-60.59242 67.34528,-66.00662 8.76718,-4.47268 14.22393,-2.62806 17.84206,6.03135 3.115,7.45522 0.0174,12.54193 -62.51728,102.66376 -15.83674,22.82309 -33.40909,48.75086 -39.04967,57.61727 -10.67122,16.77406 -23.59054,38.66489 -23.59054,39.97243 0,1.07525 15.4372,-0.48826 32,-3.24103 z"
     id="path4" />
  <path
     style="fill:#000000;fill-opacity:0;stroke-width:0"
     d="M 162.46154,955.50363 C 109.77023,947.41222 65.474234,908.4209 50.81888,857.23077 L 48,847.38461 V 500.92308 154.46154 l 2.843749,-9.82382 C 58.28944,118.91636 73.362548,95.586334 92.923077,79.507691 107.69783,67.362928 120.2893,60.160747 136.61538,54.51617 c 20.36986,-7.042669 2.36145,-6.609598 302.76924,-7.281082 152.30769,-0.340445 311.53846,-0.11145 353.84615,0.508876 l 76.92308,1.127867 10.95432,3.304641 c 28.73526,8.668699 52.87066,25.061451 69.95857,47.515839 7.60191,9.989309 18.40986,31.939099 22.11986,44.923069 L 976,154.46154 v 347.07692 347.07692 l -4.14914,12.3077 c -15.74953,46.71808 -48.30873,78.37057 -93.82841,91.21548 l -11.56091,3.26229 -350.15385,0.33489 c -192.58461,0.18419 -351.81538,0.0797 -353.84615,-0.23211 z m 189.59364,-144.4725 c 3.88668,-3.22567 7.78438,-13.26383 15.9916,-41.18498 9.49583,-32.30497 8.49344,-30.67922 30.0978,-48.81482 14.70239,-12.34179 26.89639,-18.592 37.60261,-19.27372 7.24531,-0.46135 8.67285,-0.0731 21.29264,5.79134 44.9455,20.88616 82.36317,29.8511 117.11402,28.05946 51.57968,-2.65928 98.06427,-25.9363 146.44882,-73.33381 14.13439,-13.84607 17.97195,-19.84841 16.62137,-25.99755 -1.51301,-6.88868 -15.56937,-17.323 -46.7625,-34.71274 -24.57755,-13.70165 -52.75332,-23.83248 -80,-28.76464 -18.9977,-3.43894 -57.18627,-3.14363 -74.46154,0.57582 -39.75813,8.56012 -69.98972,27.22549 -88.01753,54.34318 -5.73881,8.63242 -11.67478,20.8395 -11.67478,24.00873 0,2.55176 0.91974,2.3948 18.04202,-3.07909 49.51285,-15.82896 103.88748,-23.24717 124.72721,-17.01624 6.5205,1.94958 12.3077,6.75925 12.3077,10.22878 0,3.25879 -3.53791,7.14706 -9.19939,10.11039 -17.80288,9.3184 -88.70409,24.41153 -128.6719,27.39111 -26.59687,1.98278 -36.42857,5.55295 -56.05391,20.35474 -5.88432,4.43807 -10.82946,7.9096 -10.9892,7.71453 -0.15975,-0.19509 3.17814,-9.88346 7.41751,-21.52973 14.2433,-39.1287 34.05764,-82.76515 54.50541,-120.03538 11.049,-20.13905 12.36453,-23.09728 10.27143,-23.09728 -2.47317,0 -29.40446,35.97306 -50.67797,67.69231 -23.73646,35.39155 -28.45133,44.82005 -46.15987,92.30769 -16.32694,43.7827 -29.23127,82.3717 -31.46447,94.09113 -1.50637,7.90519 0.26825,13.59449 4.78388,15.33677 4.27616,1.64987 14.3534,0.95498 16.90904,-1.166 z M 338.53391,639.23479 c -0.44542,-1.7747 -7.93261,-19.91317 -16.63818,-40.30769 -30.55077,-71.57119 -38.29335,-95.05521 -35.28766,-107.03085 2.15294,-8.57801 9.37247,-9.31077 17.54189,-1.78047 15.08909,13.90864 42.11696,66.1864 62.07653,120.06945 3.57955,9.66341 7.1045,17.37638 7.8332,17.13993 1.65509,-0.53705 5.01236,-16.93946 6.76532,-33.05295 9.94268,-91.39472 -36.44006,-186.85278 -108.80384,-223.92392 -14.47156,-7.41361 -35.78651,-14.37011 -38.59751,-12.59698 -4.39827,2.77436 -12.78309,30.42758 -17.36547,57.27151 -8.93611,52.34845 -4.12585,95.05448 14.92042,132.46498 17.95163,35.26046 48.96342,64.6601 92.439,87.63361 7.59723,4.01455 14.28858,7.3084 14.86966,7.31966 0.58107,0.0113 0.69207,-1.43157 0.24664,-3.20628 z M 510.15385,513.07594 c 58.54403,-9.73016 118.25107,-38.59296 158.34476,-76.54497 31.89558,-30.19183 54.08523,-72.05372 62.42172,-117.76174 4.6276,-25.37253 6.14325,-46.3926 6.23061,-86.41023 0.0732,-33.51178 -0.10352,-36.74816 -2.11658,-38.76923 -4.25141,-4.26834 -50.39694,-3.42376 -83.80051,1.53376 -121.79982,18.07669 -201.01271,98.35513 -212.38711,215.24408 -2.17703,22.37218 -1.19223,65.23561 1.56207,67.98993 2.02995,2.02993 5.84723,-2.67537 24.82196,-30.59635 23.38394,-34.40904 36.22486,-51.82114 52.89323,-71.72241 23.32466,-27.84857 56.73259,-60.59242 67.34528,-66.00662 8.76718,-4.47268 14.22393,-2.62806 17.84206,6.03135 3.115,7.45522 0.0174,12.54193 -62.51728,102.66376 -15.83674,22.82309 -33.40909,48.75086 -39.04967,57.61727 -10.67122,16.77406 -23.59054,38.66489 -23.59054,39.97243 0,1.07525 15.4372,-0.48826 32,-3.24103 z"
     id="path5" />
  <path
     style="fill:#000000;fill-opacity:0;stroke-width:0"
     d="M 162.46154,955.50363 C 109.77023,947.41222 65.474234,908.4209 50.81888,857.23077 L 48,847.38461 V 500.92308 154.46154 l 2.843749,-9.82382 C 58.28944,118.91636 73.362548,95.586334 92.923077,79.507691 107.69783,67.362928 120.2893,60.160747 136.61538,54.51617 c 20.36986,-7.042669 2.36145,-6.609598 302.76924,-7.281082 152.30769,-0.340445 311.53846,-0.11145 353.84615,0.508876 l 76.92308,1.127867 10.95432,3.304641 c 28.73526,8.668699 52.87066,25.061451 69.95857,47.515839 7.60191,9.989309 18.40986,31.939099 22.11986,44.923069 L 976,154.46154 v 347.07692 347.07692 l -4.14914,12.3077 c -15.74953,46.71808 -48.30873,78.37057 -93.82841,91.21548 l -11.56091,3.26229 -350.15385,0.33489 c -192.58461,0.18419 -351.81538,0.0797 -353.84615,-0.23211 z m 189.59364,-144.4725 c 3.88668,-3.22567 7.78438,-13.26383 15.9916,-41.18498 9.49583,-32.30497 8.49344,-30.67922 30.0978,-48.81482 14.70239,-12.34179 26.89639,-18.592 37.60261,-19.27372 7.24531,-0.46135 8.67285,-0.0731 21.29264,5.79134 44.9455,20.88616 82.36317,29.8511 117.11402,28.05946 51.57968,-2.65928 98.06427,-25.9363 146.44882,-73.33381 14.13439,-13.84607 17.97195,-19.84841 16.62137,-25.99755 -1.51301,-6.88868 -15.56937,-17.323 -46.7625,-34.71274 -24.57755,-13.70165 -52.75332,-23.83248 -80,-28.76464 -18.9977,-3.43894 -57.18627,-3.14363 -74.46154,0.57582 -39.75813,8.56012 -69.98972,27.22549 -88.01753,54.34318 -5.73881,8.63242 -11.67478,20.8395 -11.67478,24.00873 0,2.55176 0.91974,2.3948 18.04202,-3.07909 49.51285,-15.82896 103.88748,-23.24717 124.72721,-17.01624 6.5205,1.94958 12.3077,6.75925 12.3077,10.22878 0,3.25879 -3.53791,7.14706 -9.19939,10.11039 -17.80288,9.3184 -88.70409,24.41153 -128.6719,27.39111 -26.59687,1.98278 -36.42857,5.55295 -56.05391,20.35474 -5.88432,4.43807 -10.82946,7.9096 -10.9892,7.71453 -0.15975,-0.19509 3.17814,-9.88346 7.41751,-21.52973 14.2433,-39.1287 34.05764,-82.76515 54.50541,-120.03538 11.049,-20.13905 12.36453,-23.09728 10.27143,-23.09728 -2.47317,0 -29.40446,35.97306 -50.67797,67.69231 -23.73646,35.39155 -28.45133,44.82005 -46.15987,92.30769 -16.32694,43.7827 -29.23127,82.3717 -31.46447,94.09113 -1.50637,7.90519 0.26825,13.59449 4.78388,15.33677 4.27616,1.64987 14.3534,0.95498 16.90904,-1.166 z M 338.53391,639.23479 c -0.44542,-1.7747 -7.93261,-19.91317 -16.63818,-40.30769 -30.55077,-71.57119 -38.29335,-95.05521 -35.28766,-107.03085 2.15294,-8.57801 9.37247,-9.31077 17.54189,-1.78047 15.08909,13.90864 42.11696,66.1864 62.07653,120.06945 3.57955,9.66341 7.1045,17.37638 7.8332,17.13993 1.65509,-0.53705 5.01236,-16.93946 6.76532,-33.05295 9.94268,-91.39472 -36.44006,-186.85278 -108.80384,-223.92392 -14.47156,-7.41361 -35.78651,-14.37011 -38.59751,-12.59698 -4.39827,2.77436 -12.78309,30.42758 -17.36547,57.27151 -8.93611,52.34845 -4.12585,95.05448 14.92042,132.46498 17.95163,35.26046 48.96342,64.6601 92.439,87.63361 7.59723,4.01455 14.28858,7.3084 14.86966,7.31966 0.58107,0.0113 0.69207,-1.43157 0.24664,-3.20628 z M 510.15385,513.07594 c 58.54403,-9.73016 118.25107,-38.59296 158.34476,-76.54497 31.89558,-30.19183 54.08523,-72.05372 62.42172,-117.76174 4.6276,-25.37253 6.14325,-46.3926 6.23061,-86.41023 0.0732,-33.51178 -0.10352,-36.74816 -2.11658,-38.76923 -4.25141,-4.26834 -50.39694,-3.42376 -83.80051,1.53376 -121.79982,18.07669 -201.01271,98.35513 -212.38711,215.24408 -2.17703,22.37218 -1.19223,65.23561 1.56207,67.98993 2.02995,2.02993 5.84723,-2.67537 24.82196,-30.59635 23.38394,-34.40904 36.22486,-51.82114 52.89323,-71.72241 23.32466,-27.84857 56.73259,-60.59242 67.34528,-66.00662 8.76718,-4.47268 14.22393,-2.62806 17.84206,6.03135 3.115,7.45522 0.0174,12.54193 -62.51728,102.66376 -15.83674,22.82309 -33.40909,48.75086 -39.04967,57.61727 -10.67122,16.77406 -23.59054,38.66489 -23.59054,39.97243 0,1.07525 15.4372,-0.48826 32,-3.24103 z"
     id="path6" />
  <path
     style="fill:#000000;fill-opacity:0.148282;stroke-width:0"
     d="M 162.46154,955.50363 C 109.77023,947.41222 65.474234,908.4209 50.81888,857.23077 L 48,847.38461 V 500.92308 154.46154 l 2.843749,-9.82382 C 58.28944,118.91636 73.362548,95.586334 92.923077,79.507691 107.69783,67.362928 120.2893,60.160747 136.61538,54.51617 c 20.36986,-7.042669 2.36145,-6.609598 302.76924,-7.281082 152.30769,-0.340445 311.53846,-0.11145 353.84615,0.508876 l 76.92308,1.127867 10.95432,3.304641 c 28.73526,8.668699 52.87066,25.061451 69.95857,47.515839 7.60191,9.989309 18.40986,31.939099 22.11986,44.923069 L 976,154.46154 v 347.07692 347.07692 l -4.14914,12.3077 c -15.74953,46.71808 -48.30873,78.37057 -93.82841,91.21548 l -11.56091,3.26229 -350.15385,0.33489 c -192.58461,0.18419 -351.81538,0.0797 -353.84615,-0.23211 z m 189.59364,-144.4725 c 3.88668,-3.22567 7.78438,-13.26383 15.9916,-41.18498 9.49583,-32.30497 8.49344,-30.67922 30.0978,-48.81482 14.70239,-12.34179 26.89639,-18.592 37.60261,-19.27372 7.24531,-0.46135 8.67285,-0.0731 21.29264,5.79134 44.9455,20.88616 82.36317,29.8511 117.11402,28.05946 51.57968,-2.65928 98.06427,-25.9363 146.44882,-73.33381 14.13439,-13.84607 17.97195,-19.84841 16.62137,-25.99755 -1.51301,-6.88868 -15.56937,-17.323 -46.7625,-34.71274 -24.57755,-13.70165 -52.75332,-23.83248 -80,-28.76464 -18.9977,-3.43894 -57.18627,-3.14363 -74.46154,0.57582 -39.75813,8.56012 -69.98972,27.22549 -88.01753,54.34318 -5.73881,8.63242 -11.67478,20.8395 -11.67478,24.00873 0,2.55176 0.91974,2.3948 18.04202,-3.07909 49.51285,-15.82896 103.88748,-23.24717 124.72721,-17.01624 6.5205,1.94958 12.3077,6.75925 12.3077,10.22878 0,3.25879 -3.53791,7.14706 -9.19939,10.11039 -17.80288,9.3184 -88.70409,24.41153 -128.6719,27.39111 -26.59687,1.98278 -36.42857,5.55295 -56.05391,20.35474 -5.88432,4.43807 -10.82946,7.9096 -10.9892,7.71453 -0.15975,-0.19509 3.17814,-9.88346 7.41751,-21.52973 14.2433,-39.1287 34.05764,-82.76515 54.50541,-120.03538 11.049,-20.13905 12.36453,-23.09728 10.27143,-23.09728 -2.47317,0 -29.40446,35.97306 -50.67797,67.69231 -23.73646,35.39155 -28.45133,44.82005 -46.15987,92.30769 -16.32694,43.7827 -29.23127,82.3717 -31.46447,94.09113 -1.50637,7.90519 0.26825,13.59449 4.78388,15.33677 4.27616,1.64987 14.3534,0.95498 16.90904,-1.166 z M 338.53391,639.23479 c -0.44542,-1.7747 -7.93261,-19.91317 -16.63818,-40.30769 -30.55077,-71.57119 -38.29335,-95.05521 -35.28766,-107.03085 2.15294,-8.57801 9.37247,-9.31077 17.54189,-1.78047 15.08909,13.90864 42.11696,66.1864 62.07653,120.06945 3.57955,9.66341 7.1045,17.37638 7.8332,17.13993 1.65509,-0.53705 5.01236,-16.93946 6.76532,-33.05295 9.94268,-91.39472 -36.44006,-186.85278 -108.80384,-223.92392 -14.47156,-7.41361 -35.78651,-14.37011 -38.59751,-12.59698 -4.39827,2.77436 -12.78309,30.42758 -17.36547,57.27151 -8.93611,52.34845 -4.12585,95.05448 14.92042,132.46498 17.95163,35.26046 48.96342,64.6601 92.439,87.63361 7.59723,4.01455 14.28858,7.3084 14.86966,7.31966 0.58107,0.0113 0.69207,-1.43157 0.24664,-3.20628 z M 510.15385,513.07594 c 58.54403,-9.73016 118.25107,-38.59296 158.34476,-76.54497 31.89558,-30.19183 54.08523,-72.05372 62.42172,-117.76174 4.6276,-25.37253 6.14325,-46.3926 6.23061,-86.41023 0.0732,-33.51178 -0.10352,-36.74816 -2.11658,-38.76923 -4.25141,-4.26834 -50.39694,-3.42376 -83.80051,1.53376 -121.79982,18.07669 -201.01271,98.35513 -212.38711,215.24408 -2.17703,22.37218 -1.19223,65.23561 1.56207,67.98993 2.02995,2.02993 5.84723,-2.67537 24.82196,-30.59635 23.38394,-34.40904 36.22486,-51.82114 52.89323,-71.72241 23.32466,-27.84857 56.73259,-60.59242 67.34528,-66.00662 8.76718,-4.47268 14.22393,-2.62806 17.84206,6.03135 3.115,7.45522 0.0174,12.54193 -62.51728,102.66376 -15.83674,22.82309 -33.40909,48.75086 -39.04967,57.61727 -10.67122,16.77406 -23.59054,38.66489 -23.59054,39.97243 0,1.07525 15.4372,-0.48826 32,-3.24103 z"
     id="path7" />
</svg>
