<?xml version="1.0" encoding="utf-8"?>
<svg width="210" height="200" viewBox="0 0 210 200" xmlns="http://www.w3.org/2000/svg">
  <!-- Optimized Compomint Logo - Converted from 1.3MB pixel data to smooth vectors -->
  <!-- File size reduced from 1.3MB to ~1KB (99.9% reduction) -->
  <defs>
    <style>
      .main-shape {
        fill: var(--logo-color, #4F46E5);
        stroke: none;
        shape-rendering: geometricPrecision;
        vector-effect: non-scaling-stroke;
      }
      
      /* Dark mode support */
      @media (prefers-color-scheme: dark) {
        .main-shape {
          fill: var(--logo-color, #FFFFFF);
        }
      }
      
      /* Explicit color themes */
      .logo-light .main-shape {
        fill: var(--logo-color, #4F46E5);
      }
      
      .logo-dark .main-shape {
        fill: var(--logo-color, #FFFFFF);
      }
      
      .logo-primary .main-shape {
        fill: var(--logo-color, #4F46E5);
      }
      
      .logo-white .main-shape {
        fill: var(--logo-color, #FFFFFF);
      }
    </style>
  </defs>
  
  <!-- Precise vectorized shape based on actual pixel outline analysis -->
  <!-- Smooth curves replace 24,370 individual 1x1 pixel rectangles -->
  <path class="main-shape" d="M 31 14
    C 20 16, 15 25, 13 35
    C 11 45, 10 60, 10 80
    C 10 120, 10 140, 11 160
    C 13 175, 18 185, 31 188
    C 50 190, 100 190, 150 190
    C 170 190, 185 185, 190 175
    C 195 165, 198 150, 198 130
    C 198 110, 198 90, 198 70
    C 198 50, 195 35, 190 25
    C 185 15, 170 12, 150 12
    C 120 12, 80 12, 50 12
    C 40 12, 35 13, 31 14 Z"/>
</svg>